<svg width="26" height="26" viewBox="0 0 26 26" fill="none" xmlns="http://www.w3.org/2000/svg">
<path d="M13 25C6.37258 25 1 19.6274 1 13C1 6.37258 6.37258 1 13 1C19.6274 1 25 6.37258 25 13C25 19.6274 19.6274 25 13 25ZM13 23.8C18.9647 23.8 23.8 18.9647 23.8 13C23.8 7.03532 18.9647 2.2 13 2.2C7.03532 2.2 2.2 7.03532 2.2 13C2.2 18.9647 7.03532 23.8 13 23.8ZM17.5487 15.5118C17.8184 15.7044 17.8808 16.0791 17.6882 16.3487C17.4956 16.6184 17.1209 16.6808 16.8513 16.4882L12.6513 13.4882C12.5388 13.4079 12.4575 13.2912 12.4211 13.1579L10.6211 6.55787C10.534 6.23818 10.7224 5.90833 11.0421 5.82114C11.3618 5.73395 11.6917 5.92243 11.7789 6.24213L13.5226 12.636L17.5487 15.5118Z" fill="#161616" stroke="#161616"/>
</svg>
