<svg width="29" height="29" viewBox="0 0 29 29" fill="none" xmlns="http://www.w3.org/2000/svg">
<path d="M26.5 12.6039V24.25C26.5 26.3211 24.8211 28 22.75 28H18.25C17.8358 28 17.5 27.6642 17.5 27.25V18.25C17.5 17.8358 17.1642 17.5 16.75 17.5H12.25C11.8358 17.5 11.5 17.8358 11.5 18.25V27.25C11.5 27.6642 11.1642 28 10.75 28H6.25001C4.17895 28 2.50002 26.3211 2.50002 24.25V12.6039L2.2268 12.8289C1.90706 13.0923 1.43439 13.0465 1.17107 12.7268C0.907755 12.407 0.953497 11.9344 1.27324 11.6711L14.0232 1.17105C14.3002 0.942983 14.6998 0.942983 14.9768 1.17105L27.7268 11.6711C28.0465 11.9344 28.0922 12.407 27.8289 12.7268C27.5656 13.0465 27.0929 13.0923 26.7732 12.8289L26.5 12.6039ZM25.01 11.3769L14.5 2.72159L3.98997 11.3769C3.99658 11.417 4.00002 11.4581 4.00002 11.5V24.25C4.00002 25.4926 5.00737 26.5 6.25001 26.5H10V18.25C10 17.0074 11.0074 16 12.25 16H16.75C17.9926 16 19 17.0074 19 18.25V26.5H22.75C23.9926 26.5 25 25.4926 25 24.25V11.5C25 11.4581 25.0034 11.417 25.01 11.3769Z" fill="#161616" fill-opacity="0.6" stroke="#161616" stroke-opacity="0.6"/>
</svg>
