<svg width="29" height="29" viewBox="0 0 29 29" fill="none" xmlns="http://www.w3.org/2000/svg">
<path d="M17.1573 16.7618C17.1245 16.8495 17.0728 16.9318 17.0023 17.0023C16.9318 17.0728 16.8495 17.1245 16.7618 17.1573L10.0257 19.8517C9.47468 20.0721 8.92787 19.5253 9.14828 18.9743L11.8427 12.2382C11.8755 12.1505 11.9272 12.0682 11.9977 11.9977C12.0682 11.9272 12.1505 11.8755 12.2382 11.8427L18.9743 9.14828C19.5253 8.92787 20.0721 9.47468 19.8517 10.0257L17.1573 16.7618ZM13.6761 12.7215L16.2785 15.3239L18.0133 10.9867L13.6761 12.7215ZM15.3239 16.2785L12.7215 13.6761L10.9867 18.0133L15.3239 16.2785ZM14.5 28C7.04416 28 1 21.9558 1 14.5C1 7.04416 7.04416 1 14.5 1C21.9558 1 28 7.04416 28 14.5C28 21.9558 21.9558 28 14.5 28ZM14.5 26.65C21.2103 26.65 26.65 21.2103 26.65 14.5C26.65 7.78974 21.2103 2.35 14.5 2.35C7.78974 2.35 2.35 7.78974 2.35 14.5C2.35 21.2103 7.78974 26.65 14.5 26.65Z" fill="#161616" fill-opacity="0.6" stroke="#161616" stroke-opacity="0.6"/>
</svg>
